# Blender v2.79 (sub 0) OBJ File: 'TheBigOne.blend'
# www.blender.org
mtllib Mayo.mtl
o Circle.003_Circle.059
v 0.856288 5.962619 -0.856288
v 1.210974 5.962619 -0.000000
v 0.856288 5.962619 0.856288
v 0.000000 5.962619 1.210974
v -0.856288 5.962619 0.856288
v -1.210974 5.962619 0.000000
v -0.856288 5.962619 -0.856288
v 0.000000 5.962619 -1.210974
v 1.210974 5.902453 -0.000000
v 0.856288 5.902453 0.856288
v 0.000000 5.902453 1.210974
v -0.856288 5.902453 0.856288
v -1.210974 5.902453 0.000000
v 0.856288 5.902453 -0.856288
v 0.000000 5.902453 -1.210974
v -0.856288 5.902453 -0.856288
v -0.000000 0.000000 -0.959219
v -0.000000 0.676367 -1.691313
v -0.000000 0.198103 -1.476887
v -1.195939 0.676367 -1.195939
v -0.678270 0.000000 -0.678270
v -1.044317 0.198103 -1.044317
v -1.691313 0.676367 0.000000
v -0.959219 0.000000 0.000000
v -1.476887 0.198103 0.000000
v -1.195939 0.676367 1.195939
v -0.678270 0.000000 0.678270
v -1.044317 0.198103 1.044317
v 0.000000 0.676367 1.691313
v -0.000000 0.000000 0.959219
v 0.000000 0.198103 1.476887
v 1.195939 0.676367 1.195939
v 0.678270 0.000000 0.678270
v 1.044317 0.198103 1.044317
v 1.691313 0.676367 -0.000000
v 0.959219 0.000000 0.000000
v 1.476887 0.198103 -0.000000
v 1.195939 0.676367 -1.195939
v 0.678270 0.000000 -0.678270
v 1.044317 0.198103 -1.044317
v -0.000000 5.259495 -1.691313
v -0.000000 5.425136 -1.604079
v -1.134255 5.425136 -1.134255
v -1.195939 5.259495 -1.195939
v -1.604079 5.425136 0.000000
v -1.691313 5.259495 0.000000
v -1.134255 5.425136 1.134255
v -1.195939 5.259495 1.195939
v 0.000000 5.425136 1.604079
v 0.000000 5.259495 1.691313
v 1.134255 5.425136 1.134255
v 1.195939 5.259495 1.195939
v 1.604079 5.425136 -0.000000
v 1.691313 5.259495 -0.000000
v 1.134255 5.425136 -1.134255
v 1.195939 5.259495 -1.195939
v 0.000000 5.704811 -1.284125
v 0.000000 5.825096 -1.210974
v -0.856288 5.825096 -0.856288
v -0.908013 5.704811 -0.908013
v -1.210974 5.825096 0.000000
v -1.284125 5.704811 0.000000
v -0.856288 5.825096 0.856288
v -0.908013 5.704811 0.908013
v 0.000000 5.825096 1.210974
v 0.000000 5.704811 1.284125
v 0.856288 5.825096 0.856288
v 0.908014 5.704811 0.908013
v 1.210974 5.825096 -0.000000
v 1.284125 5.704811 -0.000000
v 0.856288 5.825096 -0.856288
v 0.908014 5.704811 -0.908013
v -0.898196 5.901304 0.898196
v -1.270242 5.901304 0.000000
v -0.898196 5.901304 -0.898196
v 0.000000 5.901304 -1.270242
v 0.898197 5.901304 -0.898196
v 1.270242 5.901304 -0.000000
v 0.898197 5.901304 0.898196
v 0.000000 5.826245 -1.270242
v 0.000000 5.901304 1.270242
v 0.898197 5.826245 -0.898196
v -0.898196 5.826245 -0.898196
v -1.270242 5.826245 0.000000
v -0.898196 5.826245 0.898196
v 0.000000 5.826245 1.270242
v 0.898197 5.826245 0.898196
v 1.270242 5.826245 -0.000000
v -0.818771 5.832518 0.818771
v -1.157916 5.832518 0.000000
v 1.123190 5.962619 -0.000000
v 1.157916 5.832518 -0.000000
v 0.000000 5.962619 -1.123190
v 0.794216 5.962619 -0.794215
v 0.794216 5.962619 0.794215
v 0.000000 5.962619 1.123190
v 0.849705 5.846503 0.849705
v 0.000000 5.846503 1.201664
v 0.849705 5.846503 -0.849705
v 1.201664 5.846503 -0.000000
v -0.849705 5.846503 0.849705
v -1.201664 5.846503 0.000000
v -0.818770 5.832518 -0.818771
v 0.000000 5.832518 -1.157916
v 0.818771 5.832518 -0.818770
v 0.818771 5.832518 0.818770
v -0.794215 5.962619 0.794215
v -1.123190 5.962619 0.000000
v -0.794215 5.962619 -0.794215
v 0.000000 5.881046 -1.201664
v 0.000000 5.846503 -1.201664
v 0.000000 5.887888 -1.149629
v -0.849705 5.846503 -0.849705
v 0.000000 5.832518 1.157916
v -0.812910 5.887888 -0.812910
v -0.849705 5.881046 -0.849705
v -0.851785 5.507714 -0.851785
v 0.000000 5.507714 -1.204606
v -1.149629 5.887888 0.000000
v -1.204606 5.507714 0.000000
v -0.812910 5.887888 0.812910
v -0.851785 5.507714 0.851785
v 0.000000 5.887888 1.149629
v 0.000000 5.507714 1.204606
v 0.812911 5.887888 0.812910
v 0.851785 5.507714 0.851785
v 1.149629 5.887888 -0.000000
v 1.204606 5.507714 -0.000000
v 0.812911 5.887888 -0.812910
v 0.851785 5.507714 -0.851785
v -1.201664 5.881046 0.000000
v -0.849705 5.881046 0.849705
v 0.849705 5.881046 -0.849705
v 0.000000 5.881046 1.201664
v 0.849705 5.881046 0.849705
v 1.201664 5.881046 -0.000000
v -0.000000 5.915930 -1.331816
v -0.941736 5.915930 -0.941736
v -1.331816 5.915930 0.000000
v -0.941736 5.915930 0.941736
v 0.000000 5.915930 1.331816
v 0.941736 5.915930 0.941736
v 1.331816 5.915930 -0.000000
v 0.941736 5.915930 -0.941736
v -0.000000 6.259894 -1.331816
v -0.941736 6.259894 -0.941736
v -1.331816 6.259894 0.000000
v -0.941736 6.259894 0.941736
v 0.000000 6.259894 1.331816
v 0.941736 6.259894 0.941736
v 1.331816 6.259894 -0.000000
v 0.941736 6.259894 -0.941736
v -0.000000 6.274594 -1.224460
v -0.865823 6.274594 -0.865823
v -1.224460 6.274594 0.000000
v -0.865823 6.274594 0.865823
v 0.000000 6.274594 1.224460
v 0.865824 6.274594 0.865823
v 1.224460 6.274594 -0.000000
v 0.865824 6.274594 -0.865823
v 0.000000 6.312812 -1.139804
v -0.805963 6.312812 -0.805963
v -1.139804 6.312812 0.000000
v -0.805963 6.312812 0.805963
v 0.000000 6.312812 1.139804
v 0.805963 6.312812 0.805963
v 1.139804 6.312812 -0.000000
v 0.805963 6.312812 -0.805963
v 1.270093 4.384852 1.270093
v -1.270093 4.384852 -1.270093
v 0.000000 4.384852 1.796183
v -1.796183 4.384852 0.000000
v 1.270093 4.384852 -1.270093
v -0.000000 4.384852 -1.796183
v -1.270093 4.384852 1.270093
v 1.796183 4.384852 -0.000000
v 1.796183 1.026224 -0.000000
v -1.270093 1.026224 -1.270093
v 1.270093 1.026224 1.270093
v 0.000000 1.026224 1.796183
v -1.796183 1.026224 0.000000
v -1.270093 1.026224 1.270093
v 1.270093 1.026224 -1.270093
v -0.000000 1.026224 -1.796183
v 1.691313 1.026224 -0.000000
v -1.691313 1.026224 0.000000
v -0.000000 1.026224 -1.691313
v 1.195939 1.026224 1.195939
v 0.000000 1.026224 1.691313
v -1.195939 1.026224 -1.195939
v 1.195939 1.026224 -1.195939
v -1.195939 1.026224 1.195939
v 1.691313 4.384852 -0.000000
v -1.691313 4.384852 0.000000
v 1.195939 4.384852 1.195939
v 0.000000 4.384852 1.691313
v -1.195939 4.384852 -1.195939
v 1.195939 4.384852 -1.195939
v -0.000000 4.384852 -1.691313
v -1.195939 4.384852 1.195939
vn -0.0194 -0.9998 -0.0080
vn 0.9239 0.0000 0.3827
vn -0.3827 0.0000 0.9239
vn -0.2630 0.7264 -0.6350
vn -0.9239 0.0000 -0.3827
vn 0.9239 0.0000 -0.3827
vn 0.3827 0.0000 0.9239
vn -0.9239 0.0000 0.3827
vn -0.1464 -0.9239 -0.3536
vn -0.3536 -0.3827 -0.8536
vn -0.3536 -0.9239 -0.1464
vn -0.8536 -0.3827 -0.3536
vn -0.3536 -0.9239 0.1464
vn -0.8536 -0.3827 0.3536
vn -0.1464 -0.9239 0.3536
vn -0.3536 -0.3827 0.8536
vn 0.1464 -0.9239 0.3536
vn 0.3536 -0.3827 0.8536
vn 0.3536 -0.9239 0.1464
vn 0.8536 -0.3827 0.3536
vn 0.3536 -0.9239 -0.1464
vn 0.8536 -0.3827 -0.3536
vn 0.1464 -0.9239 -0.3536
vn 0.3536 -0.3827 -0.8536
vn 0.0000 -1.0000 0.0000
vn -0.3441 0.4375 -0.8308
vn -0.8308 0.4375 -0.3441
vn -0.8308 0.4375 0.3441
vn -0.3441 0.4375 0.8308
vn 0.3441 0.4375 0.8308
vn 0.8308 0.4375 0.3441
vn 0.8308 0.4375 -0.3441
vn 0.3441 0.4375 -0.8308
vn 0.3827 0.0000 -0.9239
vn 0.6350 0.7264 0.2630
vn -0.2630 0.7264 0.6350
vn -0.6350 0.7264 -0.2630
vn 0.6350 0.7264 -0.2630
vn 0.2630 0.7264 0.6350
vn -0.6350 0.7264 0.2630
vn 0.2630 0.7264 -0.6350
vn -0.3336 0.4898 -0.8055
vn -0.8055 0.4898 -0.3336
vn -0.8055 0.4898 0.3336
vn -0.3336 0.4898 0.8055
vn 0.3336 0.4898 0.8055
vn 0.8055 0.4898 0.3336
vn 0.8055 0.4898 -0.3336
vn 0.3336 0.4898 -0.8055
vn -0.3827 0.0000 -0.9239
vn -0.0080 0.9998 0.0194
vn -0.0080 -0.9998 0.0194
vn 0.0194 -0.9998 0.0080
vn -0.0080 -0.9998 -0.0194
vn 0.0194 0.9998 0.0080
vn -0.0194 -0.9998 0.0080
vn -0.0080 0.9998 -0.0194
vn 0.0194 -0.9998 -0.0080
vn -0.0194 0.9998 -0.0080
vn 0.0080 0.9998 0.0194
vn -0.0194 0.9998 0.0080
vn 0.0194 0.9998 -0.0080
vn 0.0080 -0.9998 0.0194
vn 0.0080 0.9998 -0.0194
vn 0.0080 -0.9998 -0.0194
vn -0.1302 0.9900 -0.0539
vn -0.8970 -0.2394 -0.3716
vn 0.3716 -0.2394 -0.8970
vn 0.8970 -0.2394 0.3716
vn -0.8970 -0.2394 0.3716
vn -0.3716 -0.2394 -0.8970
vn 0.8970 -0.2394 -0.3716
vn 0.0000 1.0000 0.0000
vn -0.3716 -0.2394 0.8970
vn 0.3793 -0.1324 0.9157
vn 0.9157 -0.1324 0.3793
vn 0.9157 -0.1324 -0.3793
vn 0.3793 -0.1324 -0.9157
vn -0.3793 -0.1324 -0.9157
vn -0.9157 -0.1324 -0.3793
vn -0.9157 -0.1324 0.3793
vn -0.3793 -0.1324 0.9157
vn 0.3716 -0.2394 0.8970
vn -0.1251 -0.9450 0.3021
vn -0.0539 0.9900 0.1302
vn 0.1302 0.9900 0.0539
vn -0.0539 0.9900 -0.1302
vn 0.3021 -0.9450 0.1251
vn -0.1302 0.9900 0.0539
vn -0.1251 -0.9450 -0.3021
vn 0.1302 0.9900 -0.0539
vn -0.3021 -0.9450 -0.1251
vn 0.1251 -0.9450 0.3021
vn -0.3021 -0.9450 0.1251
vn 0.3021 -0.9450 -0.1251
vn 0.0539 0.9900 0.1302
vn 0.1251 -0.9450 -0.3021
vn 0.0539 0.9900 -0.1302
vn 0.0561 0.9892 -0.1354
vn 0.1354 0.9892 0.0561
vn -0.0561 0.9892 0.1354
vn -0.1354 0.9892 -0.0561
vn 0.1354 0.9892 -0.0561
vn 0.0561 0.9892 0.1354
vn -0.1354 0.9892 0.0561
vn -0.0561 0.9892 -0.1354
vn 0.1680 0.8985 0.4056
vn -0.4056 0.8985 0.1680
vn -0.1680 0.8985 -0.4056
vn 0.1680 0.8985 -0.4056
vn 0.4056 0.8985 0.1680
vn -0.1680 0.8985 0.4056
vn -0.4056 0.8985 -0.1680
vn 0.4056 0.8985 -0.1680
usemtl Material.007
s off
f 61//1 83//1 59//1
f 2//2 10//2 9//2
f 4//3 12//3 11//3
f 60//4 42//4 43//4
f 6//5 16//5 13//5
f 1//6 9//6 14//6
f 3//7 11//7 10//7
f 5//8 13//8 12//8
f 22//9 17//9 21//9
f 20//10 19//10 22//10
f 25//11 21//11 24//11
f 23//12 22//12 25//12
f 28//13 24//13 27//13
f 26//14 25//14 28//14
f 31//15 27//15 30//15
f 29//16 28//16 31//16
f 34//17 30//17 33//17
f 32//18 31//18 34//18
f 36//19 34//19 33//19
f 35//20 34//20 37//20
f 39//21 37//21 36//21
f 38//22 37//22 40//22
f 19//23 39//23 17//23
f 19//24 38//24 40//24
f 17//25 36//25 30//25
f 43//26 41//26 44//26
f 45//27 44//27 46//27
f 47//28 46//28 48//28
f 50//29 47//29 48//29
f 51//30 50//30 52//30
f 53//31 52//31 54//31
f 55//32 54//32 56//32
f 42//33 56//33 41//33
f 8//34 14//34 15//34
f 70//35 51//35 53//35
f 66//36 47//36 49//36
f 62//37 43//37 45//37
f 72//38 53//38 55//38
f 68//39 49//39 51//39
f 47//40 62//40 45//40
f 57//41 55//41 42//41
f 60//42 58//42 57//42
f 61//43 60//43 62//43
f 63//44 62//44 64//44
f 65//45 64//45 66//45
f 67//46 66//46 68//46
f 69//47 68//47 70//47
f 72//48 69//48 70//48
f 58//49 72//49 57//49
f 7//50 15//50 16//50
f 11//51 73//51 81//51
f 63//52 86//52 85//52
f 69//53 87//53 67//53
f 59//54 80//54 58//54
f 10//55 78//55 9//55
f 63//56 84//56 61//56
f 16//57 76//57 75//57
f 75//50 80//50 83//50
f 76//34 82//34 80//34
f 73//8 84//8 85//8
f 79//7 86//7 87//7
f 77//6 88//6 82//6
f 74//5 83//5 84//5
f 81//3 85//3 86//3
f 78//2 87//2 88//2
f 71//58 88//58 69//58
f 13//59 75//59 74//59
f 11//60 79//60 10//60
f 13//61 73//61 12//61
f 9//62 77//62 14//62
f 67//63 86//63 65//63
f 15//64 77//64 76//64
f 58//65 82//65 71//65
f 116//66 119//66 115//66
f 106//67 91//67 92//67
f 114//68 107//68 96//68
f 90//69 109//69 108//69
f 92//70 94//70 105//70
f 114//71 95//71 106//71
f 90//72 107//72 89//72
f 118//73 120//73 124//73
f 105//74 93//74 104//74
f 118//75 115//75 117//75
f 117//76 119//76 120//76
f 122//77 119//77 121//77
f 124//78 121//78 123//78
f 124//79 125//79 126//79
f 128//80 125//80 127//80
f 130//81 127//81 129//81
f 130//82 112//82 118//82
f 103//83 93//83 109//83
f 98//84 89//84 114//84
f 121//85 134//85 123//85
f 135//86 127//86 125//86
f 110//87 115//87 112//87
f 100//88 106//88 92//88
f 119//89 132//89 121//89
f 103//90 111//90 104//90
f 110//50 113//50 116//50
f 133//34 111//34 110//34
f 131//8 101//8 132//8
f 134//7 97//7 135//7
f 136//6 99//6 133//6
f 116//5 102//5 131//5
f 132//3 98//3 134//3
f 135//2 100//2 136//2
f 136//91 129//91 127//91
f 90//92 113//92 103//92
f 97//93 114//93 106//93
f 101//94 90//94 89//94
f 105//95 100//95 92//95
f 134//96 125//96 123//96
f 111//97 105//97 104//97
f 129//98 110//98 112//98
f 93//73 1//73 8//73
f 94//73 2//73 1//73
f 2//73 95//73 3//73
f 109//73 8//73 7//73
f 96//73 5//73 4//73
f 3//73 96//73 4//73
f 108//73 7//73 6//73
f 107//73 6//73 5//73
f 38//6 191//6 185//6 35//6
f 20//50 190//50 187//50 18//50
f 26//8 192//8 186//8 23//8
f 32//7 188//7 189//7 29//7
f 61//1 84//1 83//1
f 2//2 3//2 10//2
f 4//3 5//3 12//3
f 60//4 57//4 42//4
f 6//5 7//5 16//5
f 1//6 2//6 9//6
f 3//7 4//7 11//7
f 5//8 6//8 13//8
f 22//9 19//9 17//9
f 20//10 18//10 19//10
f 25//11 22//11 21//11
f 23//12 20//12 22//12
f 28//13 25//13 24//13
f 26//14 23//14 25//14
f 31//15 28//15 27//15
f 29//16 26//16 28//16
f 34//17 31//17 30//17
f 32//18 29//18 31//18
f 36//19 37//19 34//19
f 35//20 32//20 34//20
f 39//21 40//21 37//21
f 38//22 35//22 37//22
f 19//23 40//23 39//23
f 19//24 18//24 38//24
f 24//25 21//25 17//25
f 17//25 39//25 36//25
f 36//25 33//25 30//25
f 30//25 27//25 24//25
f 24//25 17//25 30//25
f 43//26 42//26 41//26
f 45//27 43//27 44//27
f 47//28 45//28 46//28
f 50//29 49//29 47//29
f 51//30 49//30 50//30
f 53//31 51//31 52//31
f 55//32 53//32 54//32
f 42//33 55//33 56//33
f 8//34 1//34 14//34
f 70//35 68//35 51//35
f 66//36 64//36 47//36
f 62//37 60//37 43//37
f 72//38 70//38 53//38
f 68//39 66//39 49//39
f 47//40 64//40 62//40
f 57//41 72//41 55//41
f 60//42 59//42 58//42
f 61//43 59//43 60//43
f 63//44 61//44 62//44
f 65//45 63//45 64//45
f 67//46 65//46 66//46
f 69//47 67//47 68//47
f 72//48 71//48 69//48
f 58//49 71//49 72//49
f 7//50 8//50 15//50
f 11//51 12//51 73//51
f 63//52 65//52 86//52
f 69//53 88//53 87//53
f 59//54 83//54 80//54
f 10//55 79//55 78//55
f 63//56 85//56 84//56
f 16//57 15//57 76//57
f 75//50 76//50 80//50
f 76//34 77//34 82//34
f 73//8 74//8 84//8
f 79//7 81//7 86//7
f 77//6 78//6 88//6
f 74//5 75//5 83//5
f 81//3 73//3 85//3
f 78//2 79//2 87//2
f 71//58 82//58 88//58
f 13//59 16//59 75//59
f 11//60 81//60 79//60
f 13//61 74//61 73//61
f 9//62 78//62 77//62
f 67//63 87//63 86//63
f 15//64 14//64 77//64
f 58//65 80//65 82//65
f 116//66 131//66 119//66
f 106//67 95//67 91//67
f 114//68 89//68 107//68
f 90//69 103//69 109//69
f 92//70 91//70 94//70
f 114//71 96//71 95//71
f 90//72 108//72 107//72
f 118//73 117//73 120//73
f 120//73 122//73 124//73
f 124//73 126//73 118//73
f 126//73 128//73 118//73
f 128//73 130//73 118//73
f 105//74 94//74 93//74
f 118//75 112//75 115//75
f 117//76 115//76 119//76
f 122//77 120//77 119//77
f 124//78 122//78 121//78
f 124//79 123//79 125//79
f 128//80 126//80 125//80
f 130//81 128//81 127//81
f 130//82 129//82 112//82
f 103//83 104//83 93//83
f 98//84 101//84 89//84
f 121//85 132//85 134//85
f 135//86 136//86 127//86
f 110//87 116//87 115//87
f 100//88 97//88 106//88
f 119//89 131//89 132//89
f 103//90 113//90 111//90
f 110//50 111//50 113//50
f 133//34 99//34 111//34
f 131//8 102//8 101//8
f 134//7 98//7 97//7
f 136//6 100//6 99//6
f 116//5 113//5 102//5
f 132//3 101//3 98//3
f 135//2 97//2 100//2
f 136//91 133//91 129//91
f 90//92 102//92 113//92
f 97//93 98//93 114//93
f 101//94 102//94 90//94
f 105//95 99//95 100//95
f 134//96 135//96 125//96
f 111//97 99//97 105//97
f 129//98 133//98 110//98
f 93//73 94//73 1//73
f 94//73 91//73 2//73
f 2//73 91//73 95//73
f 109//73 93//73 8//73
f 96//73 107//73 5//73
f 3//73 95//73 96//73
f 108//73 109//73 7//73
f 107//73 108//73 6//73
f 29//3 189//3 192//3 26//3
f 23//5 186//5 190//5 20//5
f 35//2 185//2 188//2 32//2
f 18//34 187//34 191//34 38//34
f 200//8 48//8 46//8 194//8
f 195//7 52//7 50//7 196//7
f 197//50 44//50 41//50 199//50
f 199//34 41//34 56//34 198//34
f 196//3 50//3 48//3 200//3
f 193//2 54//2 52//2 195//2
f 194//5 46//5 44//5 197//5
f 198//6 56//6 54//6 193//6
usemtl Material.008
f 144//6 151//6 143//6
f 142//7 149//7 141//7
f 140//8 147//8 139//8
f 138//50 145//50 137//50
f 137//34 152//34 144//34
f 143//2 150//2 142//2
f 141//3 148//3 140//3
f 139//5 146//5 138//5
f 152//99 153//99 160//99
f 150//100 159//100 158//100
f 148//101 157//101 156//101
f 146//102 155//102 154//102
f 152//103 159//103 151//103
f 149//104 158//104 157//104
f 148//105 155//105 147//105
f 146//106 153//106 145//106
f 158//107 165//107 157//107
f 156//108 163//108 155//108
f 154//109 161//109 153//109
f 160//110 161//110 168//110
f 159//111 166//111 158//111
f 157//112 164//112 156//112
f 155//113 162//113 154//113
f 159//114 168//114 167//114
f 163//73 165//73 167//73
f 140//25 139//25 143//25
f 144//6 152//6 151//6
f 142//7 150//7 149//7
f 140//8 148//8 147//8
f 138//50 146//50 145//50
f 137//34 145//34 152//34
f 143//2 151//2 150//2
f 141//3 149//3 148//3
f 139//5 147//5 146//5
f 152//99 145//99 153//99
f 150//100 151//100 159//100
f 148//101 149//101 157//101
f 146//102 147//102 155//102
f 152//103 160//103 159//103
f 149//104 150//104 158//104
f 148//105 156//105 155//105
f 146//106 154//106 153//106
f 158//107 166//107 165//107
f 156//108 164//108 163//108
f 154//109 162//109 161//109
f 160//110 153//110 161//110
f 159//111 167//111 166//111
f 157//112 165//112 164//112
f 155//113 163//113 162//113
f 159//114 160//114 168//114
f 161//73 162//73 163//73
f 163//73 164//73 165//73
f 165//73 166//73 167//73
f 167//73 168//73 161//73
f 161//73 163//73 167//73
f 139//25 138//25 143//25
f 138//25 137//25 143//25
f 137//25 144//25 143//25
f 143//25 142//25 141//25
f 141//25 140//25 143//25
usemtl Material
f 179//7 169//7 171//7 180//7
f 192//25 189//25 180//25 182//25
f 184//34 174//34 173//34 183//34
f 196//73 200//73 175//73 171//73
f 199//73 198//73 173//73 174//73
f 191//25 187//25 184//25 183//25
f 182//8 175//8 172//8 181//8
f 181//5 172//5 170//5 178//5
f 180//3 171//3 175//3 182//3
f 185//25 191//25 183//25 177//25
f 198//73 193//73 176//73 173//73
f 186//25 192//25 182//25 181//25
f 188//25 185//25 177//25 179//25
f 177//2 176//2 169//2 179//2
f 183//6 173//6 176//6 177//6
f 178//50 170//50 174//50 184//50
f 197//73 199//73 174//73 170//73
f 194//73 197//73 170//73 172//73
f 187//25 190//25 178//25 184//25
f 195//73 196//73 171//73 169//73
f 193//73 195//73 169//73 176//73
f 200//73 194//73 172//73 175//73
f 190//25 186//25 181//25 178//25
f 189//25 188//25 179//25 180//25
